<?xml version="1.0" encoding="UTF-8"?>
<!DOCTYPE svg PUBLIC "-//W3C//DTD SVG 1.1//EN" "http://www.w3.org/Graphics/SVG/1.1/DTD/svg11.dtd">
<!-- Creator: Ngene-->
<svg xmlns="http://www.w3.org/2000/svg" xml:space="preserve" width=" 2030 " height=" 3030 " version="1.1" style="shape-rendering:geometricPrecision; text-rendering:geometricPrecision; image-rendering:optimizeQuality; fill-rule:evenodd; clip-rule:evenodd"
viewBox="0 0 viewboxx viewboxy"
 xmlns:xlink="http://www.w3.org/1999/xlink">
 <defs>
  <style type="text/css">
   <![CDATA[
    .str2 {stroke:#373435;stroke-width:1.9728}
    .str3 {stroke:#909090;stroke-width:1}
    .str0 {stroke:#4B4B4D;stroke-width:1.26235}
    .str1 {stroke:#373435;stroke-width:1.9728;stroke-linejoin:bevel}
    .fil4 {fill:#077EAB}
    .fil8 {fill:#0CFF0C}
    .fil2 {fill:#2185FF}
    .fil0 {fill:#21FF21}
    .fil3 {fill:#282829}
    .fil6 {fill:#5CE6D0}
    .fil7 {fill:#91D8F7}
    .fil9 {fill:#F5874F}
    .fil1 {fill:#FF3421}
    .fil10 {fill:#373435;fill-rule:nonzero}
     
     
    .fil5 {fill:#AFC4CD}

    .fil_p {fill:#FF8856}
    .fil_o {fill:#4295B5}
    .fil_d {fill:#FFD356}

    .Fill_Input1D {fill:#3DB3A6}
    .Fill_Input3D {fill:#3DB3A6}
    .Fill_Last {fill:#FFF5D8}
    .Fill_ShortCut {fill:#FF8956}
    .Fill_Middle {fill:#AFC4CD}
    .Fill_Conv3D {fill:#FF8956}
    .Fill_Softmax {fill:#FFD356}
    .Fill_Concat {fill:#FF8956}
    .Fill_FC {fill:#FFD356}
    .Fill_AvgPool {fill:#FF8956}
    .Fill_MaxPool {fill:#FF8956}
    .Fill_UpSample {fill:#FF8956}
    .Fill_DropOut3D {fill:#FF8956}
    .Fill_DropOut {fill:#FFD356}
    .Fill_Region {fill:#FFD356}
    .Fill_Flatten {fill:#FFD356}
    .Fill_Detection {fill:#FFD356}
    .Fill_Concat_Middle {fill:#ADCCC9}
    .Fill_Softmax3D {fill:#FFD356}
    .Fill_Conv2D_Advanced {fill:#FF8956}



    .fnt0 {font-weight:bold;font-size:14px;font-family:'Arial'}
   ]]>
  </style>
 </defs>
 <g transform=" scale(0.461538 , 0.461538)translate (0.000000 , 0 )" id="Layer_x0020_1">
  <metadata id="CorelCorpID_0Corel-Layer"/>
  <g id="_2188959232976">
   <rect class="fil_p str0" x="336" y="42" width="292" height="34"/>
   <rect class="fil_o str0" x="336" y="76" width="292" height="34"/>
   <rect class="fil_d str0" x="336" y="110" width="292" height="34"/>
   <g transform="matrix(1 0 0 1 -150.02 -706.919)">
    <text x="500" y="773"  class="fil3 fnt0">Total Params - </text>
    <text x="646" y="773"  class="fil3 fnt0">110.5k</text>
   </g>
   <g transform="matrix(1 0 0 1 -150.02 -675.669)">
    <text x="500" y="773"  class="fil3 fnt0">Total Ops      - </text>
    <text x="645" y="773"  class="fil3 fnt0">389.1M</text>
   </g>
   <g transform="matrix(1 0 0 1 -149.074 -639.684)">
    <text x="500" y="773"  class="fil3 fnt0">Total Data      - </text>
    <text x="646" y="773"  class="fil3 fnt0">2.093M</text>
   </g>
  </g>

<g transform="translate (0 , 180 )" xmlns="http://www.w3.org/2000/svg" id="_2188820419440">
     <g transform="translate(0,-252)">  
     <path class="Fill_Input3D str1" d="M103 252l195 0c4,0 7,2 7,6l0 23 -209 0 0 -23c0,-4 4,-6 7,-6l0 0z"/>
     <polygon class="Fill_Middle str1" points="96,309 305,309 305,280 96,280 "/>
     <path class="Fill_Last str1" d="M96 309l209 0 0 22c0,4 -4,7 -7,7l-195 0c-3,0 -7,-3 -7,-7l0 -22 0 0z"/>
     <text text-anchor="middle" x="200" y="271" class="fil3 fnt0">Input3D</text>
     <text text-anchor="middle" x="200" y="300" class="fil3 fnt0">RF - 1x1</text>
     <text text-anchor="middle" x="200" y="329" class="fil3 fnt0">Dims - 3x224x224</text>

    <rect class="fil_p str3" x="330" y="247" width="0" height="22.7269"/>
    <rect class="fil_o str3" x="330" y="270" width="0" height="22.7269"/>
    <rect class="fil_d str3" x="330" y="292" width="193.12" height="22.7269"/>
    <text x="335" y="264" class="fil3 fnt0">0</text>
    <text x="335" y="286" class="fil3 fnt0">0</text>
    <text x="335" y="309" class="fil3 fnt0">150.5k</text>
   </g>
  </g><g transform=" translate (0 , 267 )" xmlns="http://www.w3.org/2000/svg" id="Layer_x0020_1_0">
  <path transform=" translate(0,-210)" d="M198 245l0 -35 4 0 0 35 -4 0zm0 3l4 -2 -4 0 10 -16 4 3 -10 15 -4 0zm0 0l4 0 -2 3 -2 -3 0 0zm-8 -17l1 -1 11 16 -4 2 -10 -15 2 -2 0 0z" class="fil10"/>


 </g>
<g transform="translate (0 , 308 )" xmlns="http://www.w3.org/2000/svg" id="_2188820445584">
   <g transform="translate(0,-342)">  
   <path class="Fill_Conv3D str1" d="M103 342l195 0c4,0 7,2 7,6l0 23 -209 0 0 -23c0,-4 3,-6 7,-6l0 0z"/>
   <polygon class="Fill_Middle str1" points="96,399 305,399 305,370 96,370 "/>
   <polygon class="Fill_Middle str1" points="96,428 305,428 305,399 96,399 "/>
   <path class="Fill_Last str1" d="M96 428l209 0 0 23c0,3 -3,6 -7,6l-195 0c-4,0 -7,-3 -7,-6l0 -23 0 0z"/>
   <text text-anchor="middle" x="200" y="360" class="fil3 fnt0">Conv2D -  c8,k3,s1,p1</text>
   <text text-anchor="middle" x="200" y="389" class="fil3 fnt0">BN=F, HB=T, LReLU</text>
   <text text-anchor="middle" x="200" y="418" class="fil3 fnt0">RF - 3x3</text>
   <text text-anchor="middle" x="200" y="447" class="fil3 fnt0">Dims - 8x224x224</text>
 
    <rect class="fil_p str3" x="330" y="351" width="3.3355" height="22.7269"/>
    <rect class="fil_o str3" x="330" y="374" width="199.69" height="22.7269"/>
    <rect class="fil_d str3" x="330" y="396" width="515" height="22.7269"/>
    <text x="335" y="367" class="fil3 fnt0">240</text>
    <text x="335" y="390" class="fil3 fnt0">22.88M</text>
    <text x="335" y="412" class="fil3 fnt0">401.4k</text>
   </g>
  </g><g transform=" translate (0 , 422 )" xmlns="http://www.w3.org/2000/svg" id="Layer_x0020_1_0">
  <path transform=" translate(0,-210)" d="M198 245l0 -35 4 0 0 35 -4 0zm0 3l4 -2 -4 0 10 -16 4 3 -10 15 -4 0zm0 0l4 0 -2 3 -2 -3 0 0zm-8 -17l1 -1 11 16 -4 2 -10 -15 2 -2 0 0z" class="fil10"/>


 </g>
<g transform="translate (0 , 463 )" xmlns="http://www.w3.org/2000/svg" id="_2188820445584">
   <g transform="translate(0,-342)">  
   <path class="Fill_Conv3D str1" d="M103 342l195 0c4,0 7,2 7,6l0 23 -209 0 0 -23c0,-4 3,-6 7,-6l0 0z"/>
   <polygon class="Fill_Middle str1" points="96,399 305,399 305,370 96,370 "/>
   <polygon class="Fill_Middle str1" points="96,428 305,428 305,399 96,399 "/>
   <path class="Fill_Last str1" d="M96 428l209 0 0 23c0,3 -3,6 -7,6l-195 0c-4,0 -7,-3 -7,-6l0 -23 0 0z"/>
   <text text-anchor="middle" x="200" y="360" class="fil3 fnt0">Conv2D -  c16,k3,s1,p1</text>
   <text text-anchor="middle" x="200" y="389" class="fil3 fnt0">BN=F, HB=T, LReLU</text>
   <text text-anchor="middle" x="200" y="418" class="fil3 fnt0">RF - 5x5</text>
   <text text-anchor="middle" x="200" y="447" class="fil3 fnt0">Dims - 16x224x224</text>
 
    <rect class="fil_p str3" x="330" y="351" width="16.677" height="22.7269"/>
    <rect class="fil_o str3" x="330" y="374" width="1030" height="22.7269"/>
    <rect class="fil_d str3" x="330" y="396" width="1030" height="22.7269"/>
    <text x="335" y="367" class="fil3 fnt0">1.2k</text>
    <text x="335" y="390" class="fil3 fnt0">118M</text>
    <text x="335" y="412" class="fil3 fnt0">802.8k</text>
   </g>
  </g><g transform=" translate (0 , 577 )" xmlns="http://www.w3.org/2000/svg" id="Layer_x0020_1_0">
  <path transform=" translate(0,-210)" d="M198 245l0 -35 4 0 0 35 -4 0zm0 3l4 -2 -4 0 10 -16 4 3 -10 15 -4 0zm0 0l4 0 -2 3 -2 -3 0 0zm-8 -17l1 -1 11 16 -4 2 -10 -15 2 -2 0 0z" class="fil10"/>


 </g>
<g transform="translate (0 , 618 )" xmlns="http://www.w3.org/2000/svg" id="_2188820419440">
     <g transform="translate(0,-252)">  
     <path class="Fill_MaxPool str1" d="M103 252l195 0c4,0 7,2 7,6l0 23 -209 0 0 -23c0,-4 4,-6 7,-6l0 0z"/>
     <polygon class="Fill_Middle str1" points="96,309 305,309 305,280 96,280 "/>
     <path class="Fill_Last str1" d="M96 309l209 0 0 22c0,4 -4,7 -7,7l-195 0c-3,0 -7,-3 -7,-7l0 -22 0 0z"/>
     <text text-anchor="middle" x="200" y="271" class="fil3 fnt0">MaxPool - 2x2/2x2/0x0</text>
     <text text-anchor="middle" x="200" y="300" class="fil3 fnt0">RF - 6x6</text>
     <text text-anchor="middle" x="200" y="329" class="fil3 fnt0">Dims - 16x112x112</text>

    <rect class="fil_p str3" x="330" y="247" width="0" height="22.7269"/>
    <rect class="fil_o str3" x="330" y="270" width="7.0068" height="22.7269"/>
    <rect class="fil_d str3" x="330" y="292" width="257.5" height="22.7269"/>
    <text x="335" y="264" class="fil3 fnt0">0</text>
    <text x="335" y="286" class="fil3 fnt0">802.8k</text>
    <text x="335" y="309" class="fil3 fnt0">200.7k</text>
   </g>
  </g><g transform=" translate (0 , 705 )" xmlns="http://www.w3.org/2000/svg" id="Layer_x0020_1_0">
  <path transform=" translate(0,-210)" d="M198 245l0 -35 4 0 0 35 -4 0zm0 3l4 -2 -4 0 10 -16 4 3 -10 15 -4 0zm0 0l4 0 -2 3 -2 -3 0 0zm-8 -17l1 -1 11 16 -4 2 -10 -15 2 -2 0 0z" class="fil10"/>


 </g>
<g transform="translate (0 , 746 )" xmlns="http://www.w3.org/2000/svg" id="_2188820445584">
   <g transform="translate(0,-342)">  
   <path class="Fill_Conv3D str1" d="M103 342l195 0c4,0 7,2 7,6l0 23 -209 0 0 -23c0,-4 3,-6 7,-6l0 0z"/>
   <polygon class="Fill_Middle str1" points="96,399 305,399 305,370 96,370 "/>
   <polygon class="Fill_Middle str1" points="96,428 305,428 305,399 96,399 "/>
   <path class="Fill_Last str1" d="M96 428l209 0 0 23c0,3 -3,6 -7,6l-195 0c-4,0 -7,-3 -7,-6l0 -23 0 0z"/>
   <text text-anchor="middle" x="200" y="360" class="fil3 fnt0">Conv2D -  c16,k3,s1,p1</text>
   <text text-anchor="middle" x="200" y="389" class="fil3 fnt0">BN=F, HB=T, LReLU</text>
   <text text-anchor="middle" x="200" y="418" class="fil3 fnt0">RF - 10x10</text>
   <text text-anchor="middle" x="200" y="447" class="fil3 fnt0">Dims - 16x112x112</text>
 
    <rect class="fil_p str3" x="330" y="351" width="32.688" height="22.7269"/>
    <rect class="fil_o str3" x="330" y="374" width="509.74" height="22.7269"/>
    <rect class="fil_d str3" x="330" y="396" width="257.5" height="22.7269"/>
    <text x="335" y="367" class="fil3 fnt0">2.352k</text>
    <text x="335" y="390" class="fil3 fnt0">58.4M</text>
    <text x="335" y="412" class="fil3 fnt0">200.7k</text>
   </g>
  </g><g transform=" translate (0 , 860 )" xmlns="http://www.w3.org/2000/svg" id="Layer_x0020_1_0">
  <path transform=" translate(0,-210)" d="M198 245l0 -35 4 0 0 35 -4 0zm0 3l4 -2 -4 0 10 -16 4 3 -10 15 -4 0zm0 0l4 0 -2 3 -2 -3 0 0zm-8 -17l1 -1 11 16 -4 2 -10 -15 2 -2 0 0z" class="fil10"/>


 </g>
<g transform="translate (0 , 901 )" xmlns="http://www.w3.org/2000/svg" id="_2188820419440">
     <g transform="translate(0,-252)">  
     <path class="Fill_MaxPool str1" d="M103 252l195 0c4,0 7,2 7,6l0 23 -209 0 0 -23c0,-4 4,-6 7,-6l0 0z"/>
     <polygon class="Fill_Middle str1" points="96,309 305,309 305,280 96,280 "/>
     <path class="Fill_Last str1" d="M96 309l209 0 0 22c0,4 -4,7 -7,7l-195 0c-3,0 -7,-3 -7,-7l0 -22 0 0z"/>
     <text text-anchor="middle" x="200" y="271" class="fil3 fnt0">MaxPool - 2x2/2x2/0x0</text>
     <text text-anchor="middle" x="200" y="300" class="fil3 fnt0">RF - 12x12</text>
     <text text-anchor="middle" x="200" y="329" class="fil3 fnt0">Dims - 16x56x56</text>

    <rect class="fil_p str3" x="330" y="247" width="0" height="22.7269"/>
    <rect class="fil_o str3" x="330" y="270" width="1.7517" height="22.7269"/>
    <rect class="fil_d str3" x="330" y="292" width="64.375" height="22.7269"/>
    <text x="335" y="264" class="fil3 fnt0">0</text>
    <text x="335" y="286" class="fil3 fnt0">200.7k</text>
    <text x="335" y="309" class="fil3 fnt0">50.18k</text>
   </g>
  </g><g transform=" translate (0 , 988 )" xmlns="http://www.w3.org/2000/svg" id="Layer_x0020_1_0">
  <path transform=" translate(0,-210)" d="M198 245l0 -35 4 0 0 35 -4 0zm0 3l4 -2 -4 0 10 -16 4 3 -10 15 -4 0zm0 0l4 0 -2 3 -2 -3 0 0zm-8 -17l1 -1 11 16 -4 2 -10 -15 2 -2 0 0z" class="fil10"/>


 </g>
<g transform="translate (0 , 1029 )" xmlns="http://www.w3.org/2000/svg" id="_2188820445584">
   <g transform="translate(0,-342)">  
   <path class="Fill_Conv3D str1" d="M103 342l195 0c4,0 7,2 7,6l0 23 -209 0 0 -23c0,-4 3,-6 7,-6l0 0z"/>
   <polygon class="Fill_Middle str1" points="96,399 305,399 305,370 96,370 "/>
   <polygon class="Fill_Middle str1" points="96,428 305,428 305,399 96,399 "/>
   <path class="Fill_Last str1" d="M96 428l209 0 0 23c0,3 -3,6 -7,6l-195 0c-4,0 -7,-3 -7,-6l0 -23 0 0z"/>
   <text text-anchor="middle" x="200" y="360" class="fil3 fnt0">Conv2D -  c32,k3,s1,p1</text>
   <text text-anchor="middle" x="200" y="389" class="fil3 fnt0">BN=F, HB=T, LReLU</text>
   <text text-anchor="middle" x="200" y="418" class="fil3 fnt0">RF - 20x20</text>
   <text text-anchor="middle" x="200" y="447" class="fil3 fnt0">Dims - 32x56x56</text>
 
    <rect class="fil_p str3" x="330" y="351" width="65.376" height="22.7269"/>
    <rect class="fil_o str3" x="330" y="374" width="254.87" height="22.7269"/>
    <rect class="fil_d str3" x="330" y="396" width="128.75" height="22.7269"/>
    <text x="335" y="367" class="fil3 fnt0">4.704k</text>
    <text x="335" y="390" class="fil3 fnt0">29.2M</text>
    <text x="335" y="412" class="fil3 fnt0">100.4k</text>
   </g>
  </g><g transform=" translate (0 , 1143 )" xmlns="http://www.w3.org/2000/svg" id="Layer_x0020_1_0">
  <path transform=" translate(0,-210)" d="M198 245l0 -35 4 0 0 35 -4 0zm0 3l4 -2 -4 0 10 -16 4 3 -10 15 -4 0zm0 0l4 0 -2 3 -2 -3 0 0zm-8 -17l1 -1 11 16 -4 2 -10 -15 2 -2 0 0z" class="fil10"/>


 </g>
<g transform="translate (0 , 1184 )" xmlns="http://www.w3.org/2000/svg" id="_2188820419440">
     <g transform="translate(0,-252)">  
     <path class="Fill_MaxPool str1" d="M103 252l195 0c4,0 7,2 7,6l0 23 -209 0 0 -23c0,-4 4,-6 7,-6l0 0z"/>
     <polygon class="Fill_Middle str1" points="96,309 305,309 305,280 96,280 "/>
     <path class="Fill_Last str1" d="M96 309l209 0 0 22c0,4 -4,7 -7,7l-195 0c-3,0 -7,-3 -7,-7l0 -22 0 0z"/>
     <text text-anchor="middle" x="200" y="271" class="fil3 fnt0">MaxPool - 2x2/2x2/0x0</text>
     <text text-anchor="middle" x="200" y="300" class="fil3 fnt0">RF - 24x24</text>
     <text text-anchor="middle" x="200" y="329" class="fil3 fnt0">Dims - 32x28x28</text>

    <rect class="fil_p str3" x="330" y="247" width="0" height="22.7269"/>
    <rect class="fil_o str3" x="330" y="270" width="0.87585" height="22.7269"/>
    <rect class="fil_d str3" x="330" y="292" width="32.187" height="22.7269"/>
    <text x="335" y="264" class="fil3 fnt0">0</text>
    <text x="335" y="286" class="fil3 fnt0">100.4k</text>
    <text x="335" y="309" class="fil3 fnt0">25.09k</text>
   </g>
  </g><g transform=" translate (0 , 1271 )" xmlns="http://www.w3.org/2000/svg" id="Layer_x0020_1_0">
  <path transform=" translate(0,-210)" d="M198 245l0 -35 4 0 0 35 -4 0zm0 3l4 -2 -4 0 10 -16 4 3 -10 15 -4 0zm0 0l4 0 -2 3 -2 -3 0 0zm-8 -17l1 -1 11 16 -4 2 -10 -15 2 -2 0 0z" class="fil10"/>


 </g>
<g transform="translate (0 , 1312 )" xmlns="http://www.w3.org/2000/svg" id="_2188820445584">
   <g transform="translate(0,-342)">  
   <path class="Fill_Conv3D str1" d="M103 342l195 0c4,0 7,2 7,6l0 23 -209 0 0 -23c0,-4 3,-6 7,-6l0 0z"/>
   <polygon class="Fill_Middle str1" points="96,399 305,399 305,370 96,370 "/>
   <polygon class="Fill_Middle str1" points="96,428 305,428 305,399 96,399 "/>
   <path class="Fill_Last str1" d="M96 428l209 0 0 23c0,3 -3,6 -7,6l-195 0c-4,0 -7,-3 -7,-6l0 -23 0 0z"/>
   <text text-anchor="middle" x="200" y="360" class="fil3 fnt0">Conv2D -  c64,k3,s1,p1</text>
   <text text-anchor="middle" x="200" y="389" class="fil3 fnt0">BN=F, HB=T, LReLU</text>
   <text text-anchor="middle" x="200" y="418" class="fil3 fnt0">RF - 40x40</text>
   <text text-anchor="middle" x="200" y="447" class="fil3 fnt0">Dims - 64x28x28</text>
 
    <rect class="fil_p str3" x="330" y="351" width="258.83" height="22.7269"/>
    <rect class="fil_o str3" x="330" y="374" width="253.56" height="22.7269"/>
    <rect class="fil_d str3" x="330" y="396" width="64.375" height="22.7269"/>
    <text x="335" y="367" class="fil3 fnt0">18.62k</text>
    <text x="335" y="390" class="fil3 fnt0">29.05M</text>
    <text x="335" y="412" class="fil3 fnt0">50.18k</text>
   </g>
  </g><g transform=" translate (0 , 1426 )" xmlns="http://www.w3.org/2000/svg" id="Layer_x0020_1_0">
  <path transform=" translate(0,-210)" d="M198 245l0 -35 4 0 0 35 -4 0zm0 3l4 -2 -4 0 10 -16 4 3 -10 15 -4 0zm0 0l4 0 -2 3 -2 -3 0 0zm-8 -17l1 -1 11 16 -4 2 -10 -15 2 -2 0 0z" class="fil10"/>


 </g>
<g transform="translate (0 , 1467 )" xmlns="http://www.w3.org/2000/svg" id="_2188820445584">
   <g transform="translate(0,-342)">  
   <path class="Fill_Conv3D str1" d="M103 342l195 0c4,0 7,2 7,6l0 23 -209 0 0 -23c0,-4 3,-6 7,-6l0 0z"/>
   <polygon class="Fill_Middle str1" points="96,399 305,399 305,370 96,370 "/>
   <polygon class="Fill_Middle str1" points="96,428 305,428 305,399 96,399 "/>
   <path class="Fill_Last str1" d="M96 428l209 0 0 23c0,3 -3,6 -7,6l-195 0c-4,0 -7,-3 -7,-6l0 -23 0 0z"/>
   <text text-anchor="middle" x="200" y="360" class="fil3 fnt0">Conv2D -  c128,k3,s1,p1</text>
   <text text-anchor="middle" x="200" y="389" class="fil3 fnt0">BN=F, HB=T, LReLU</text>
   <text text-anchor="middle" x="200" y="418" class="fil3 fnt0">RF - 56x56</text>
   <text text-anchor="middle" x="200" y="447" class="fil3 fnt0">Dims - 128x28x28</text>
 
    <rect class="fil_p str3" x="330" y="351" width="1030" height="22.7269"/>
    <rect class="fil_o str3" x="330" y="374" width="1011.6" height="22.7269"/>
    <rect class="fil_d str3" x="330" y="396" width="128.75" height="22.7269"/>
    <text x="335" y="367" class="fil3 fnt0">74.11k</text>
    <text x="335" y="390" class="fil3 fnt0">115.9M</text>
    <text x="335" y="412" class="fil3 fnt0">100.4k</text>
   </g>
  </g><g transform=" translate (0 , 1581 )" xmlns="http://www.w3.org/2000/svg" id="Layer_x0020_1_0">
  <path transform=" translate(0,-210)" d="M198 245l0 -35 4 0 0 35 -4 0zm0 3l4 -2 -4 0 10 -16 4 3 -10 15 -4 0zm0 0l4 0 -2 3 -2 -3 0 0zm-8 -17l1 -1 11 16 -4 2 -10 -15 2 -2 0 0z" class="fil10"/>


 </g>
<g transform="translate (0 , 1622 )" xmlns="http://www.w3.org/2000/svg" id="_2188820445584">
   <g transform="translate(0,-342)">  
   <path class="Fill_Conv3D str1" d="M103 342l195 0c4,0 7,2 7,6l0 23 -209 0 0 -23c0,-4 3,-6 7,-6l0 0z"/>
   <polygon class="Fill_Middle str1" points="96,399 305,399 305,370 96,370 "/>
   <polygon class="Fill_Middle str1" points="96,428 305,428 305,399 96,399 "/>
   <path class="Fill_Last str1" d="M96 428l209 0 0 23c0,3 -3,6 -7,6l-195 0c-4,0 -7,-3 -7,-6l0 -23 0 0z"/>
   <text text-anchor="middle" x="200" y="360" class="fil3 fnt0">Conv2D -  c8,k3,s1,p1</text>
   <text text-anchor="middle" x="200" y="389" class="fil3 fnt0">BN=F, HB=T, LReLU</text>
   <text text-anchor="middle" x="200" y="418" class="fil3 fnt0">RF - 72x72</text>
   <text text-anchor="middle" x="200" y="447" class="fil3 fnt0">Dims - 8x28x28</text>
 
    <rect class="fil_p str3" x="330" y="351" width="128.42" height="22.7269"/>
    <rect class="fil_o str3" x="330" y="374" width="126.29" height="22.7269"/>
    <rect class="fil_d str3" x="330" y="396" width="8.0469" height="22.7269"/>
    <text x="335" y="367" class="fil3 fnt0">9.24k</text>
    <text x="335" y="390" class="fil3 fnt0">14.47M</text>
    <text x="335" y="412" class="fil3 fnt0">6.272k</text>
   </g>
  </g><g transform=" translate (0 , 1736 )" xmlns="http://www.w3.org/2000/svg" id="Layer_x0020_1_0">
  <path transform=" translate(0,-210)" d="M198 245l0 -35 4 0 0 35 -4 0zm0 3l4 -2 -4 0 10 -16 4 3 -10 15 -4 0zm0 0l4 0 -2 3 -2 -3 0 0zm-8 -17l1 -1 11 16 -4 2 -10 -15 2 -2 0 0z" class="fil10"/>


 </g>
<g transform="translate (0 , 1777 )" xmlns="http://www.w3.org/2000/svg" id="_2188820445584">
   <g transform="translate(0,-342)">  
   <path class="Fill_Conv3D str1" d="M103 342l195 0c4,0 7,2 7,6l0 23 -209 0 0 -23c0,-4 3,-6 7,-6l0 0z"/>
   <polygon class="Fill_Middle str1" points="96,399 305,399 305,370 96,370 "/>
   <polygon class="Fill_Middle str1" points="96,428 305,428 305,399 96,399 "/>
   <path class="Fill_Last str1" d="M96 428l209 0 0 23c0,3 -3,6 -7,6l-195 0c-4,0 -7,-3 -7,-6l0 -23 0 0z"/>
   <text text-anchor="middle" x="200" y="360" class="fil3 fnt0">Conv2D -  c6,k1,s1,p0</text>
   <text text-anchor="middle" x="200" y="389" class="fil3 fnt0">BN=F, HB=T, None</text>
   <text text-anchor="middle" x="200" y="418" class="fil3 fnt0">RF - 72x72</text>
   <text text-anchor="middle" x="200" y="447" class="fil3 fnt0">Dims - 6x28x28</text>
 
    <rect class="fil_p str3" x="330" y="351" width="0.75049" height="22.7269"/>
    <rect class="fil_o str3" x="330" y="374" width="0.69794" height="22.7269"/>
    <rect class="fil_d str3" x="330" y="396" width="6.0352" height="22.7269"/>
    <text x="335" y="367" class="fil3 fnt0">54</text>
    <text x="335" y="390" class="fil3 fnt0">79.97k</text>
    <text x="335" y="412" class="fil3 fnt0">4.704k</text>
   </g>
  </g><g transform=" translate (0 , 1891 )" xmlns="http://www.w3.org/2000/svg" id="Layer_x0020_1_0">
  <path transform=" translate(0,-210)" d="M198 245l0 -35 4 0 0 35 -4 0zm0 3l4 -2 -4 0 10 -16 4 3 -10 15 -4 0zm0 0l4 0 -2 3 -2 -3 0 0zm-8 -17l1 -1 11 16 -4 2 -10 -15 2 -2 0 0z" class="fil10"/>


 </g>
<g transform="translate (0 , 1932 )" xmlns="http://www.w3.org/2000/svg" id="_2188820419440">
     <g transform="translate(0,-252)">  
     <path class="Fill_Region str1" d="M103 252l195 0c4,0 7,2 7,6l0 23 -209 0 0 -23c0,-4 4,-6 7,-6l0 0z"/>
     <polygon class="Fill_Middle str1" points="96,309 305,309 305,280 96,280 "/>
     <path class="Fill_Last str1" d="M96 309l209 0 0 22c0,4 -4,7 -7,7l-195 0c-3,0 -7,-3 -7,-7l0 -22 0 0z"/>
     <text text-anchor="middle" x="200" y="271" class="fil3 fnt0">YOLO_v2</text>
     <text text-anchor="middle" x="200" y="300" class="fil3 fnt0">RF - 72x72</text>
     <text text-anchor="middle" x="200" y="329" class="fil3 fnt0">Dims - 6x28x28</text>

    <rect class="fil_p str3" x="330" y="247" width="0" height="22.7269"/>
    <rect class="fil_o str3" x="330" y="270" width="0" height="22.7269"/>
    <rect class="fil_d str3" x="330" y="292" width="0" height="22.7269"/>
    <text x="335" y="264" class="fil3 fnt0">0</text>
    <text x="335" y="286" class="fil3 fnt0">0</text>
    <text x="335" y="309" class="fil3 fnt0">0</text>
   </g>
  </g>
</g>
</svg>
